<svg xmlns="http://www.w3.org/2000/svg" xmlns:xlink="http://www.w3.org/1999/xlink" version="1.1" x="0px" y="0px" viewBox="0 0 100 125" enable-background="new 0 0 100 100" xml:space="preserve"><g><path fill-rule="evenodd" clip-rule="evenodd" d="M16.5,26.8h67.1V15.7H16.5V26.8L16.5,26.8z M18.4,30.7h63.2   c0.3,0,0.6,0.3,0.6,0.6v27.9h1.3v-30H16.5v30h1.3V31.3C17.8,31,18.1,30.7,18.4,30.7L18.4,30.7z M81,31.9v27.3H19V31.9H81L81,31.9z    M75.6,92.6h5.7v-1.4h-5.7V92.6L75.6,92.6z M9.3,62.6h81.4v-1H9.3V62.6L9.3,62.6z M93.1,63.8c0,0.2,0,0.3-0.1,0.5L86,83.4v6.5   c0,0.7-0.5,1.2-1.2,1.2h-0.9v2.6c0,0.7-0.5,1.2-1.2,1.2h-8.2c-0.7,0-1.2-0.5-1.2-1.2v-2.6H26.8v2.6c0,0.7-0.5,1.2-1.2,1.2h-8.2   c-0.7,0-1.2-0.5-1.2-1.2v-2.6h-0.9c-0.7,0-1.2-0.5-1.2-1.2v-6.5L7,64.3c-0.1-0.1-0.1-0.3-0.1-0.5v-3.4c0-0.7,0.5-1.2,1.2-1.2h6   V14.5c0-0.3,0.1-0.6,0.3-0.8l5.9-8.2c0.2-0.3,0.6-0.5,1-0.5l57.6,0c0.4,0,0.8,0.2,1,0.6l5.8,8.1c0.2,0.2,0.3,0.5,0.3,0.8v44.8h6   c0.7,0,1.2,0.5,1.2,1.2V63.8L93.1,63.8z M60.6,65.1v0.6c0,1.5-1.3,2.8-2.8,2.8H42.2c-1.5,0-2.8-1.3-2.8-2.8v-0.6H9.8L16.1,82h67.8   l6.3-16.9H60.6L60.6,65.1z M41.8,65.1v0.6c0,0.2,0.2,0.4,0.4,0.4h15.7c0.2,0,0.4-0.2,0.4-0.4v-0.6H41.8L41.8,65.1z M83.5,84.4H16.5   v4.3h0.9h8.2h48.9h8.2h0.9V84.4L83.5,84.4z M18.6,92.6h5.7v-1.4h-5.7V92.6L18.6,92.6z M78.2,7.4H21.8l-4.2,5.8h64.7L78.2,7.4z"/><path fill-rule="evenodd" clip-rule="evenodd" d="M19.6,18.9c0-0.7,0.5-1.2,1.2-1.2s1.2,0.5,1.2,1.2v4.7c0,0.7-0.5,1.2-1.2,1.2   s-1.2-0.5-1.2-1.2V18.9z"/><path fill-rule="evenodd" clip-rule="evenodd" d="M26.1,18.9c0-0.7,0.5-1.2,1.2-1.2c0.7,0,1.2,0.5,1.2,1.2v4.7   c0,0.7-0.5,1.2-1.2,1.2c-0.7,0-1.2-0.5-1.2-1.2V18.9z"/><path fill-rule="evenodd" clip-rule="evenodd" d="M32.5,18.9c0-0.7,0.5-1.2,1.2-1.2s1.2,0.5,1.2,1.2v4.7c0,0.7-0.5,1.2-1.2,1.2   s-1.2-0.5-1.2-1.2V18.9z"/><path fill-rule="evenodd" clip-rule="evenodd" d="M38.9,18.9c0-0.7,0.5-1.2,1.2-1.2c0.7,0,1.2,0.5,1.2,1.2v4.7   c0,0.7-0.5,1.2-1.2,1.2c-0.7,0-1.2-0.5-1.2-1.2V18.9z"/><path fill-rule="evenodd" clip-rule="evenodd" d="M45.4,18.9c0-0.7,0.5-1.2,1.2-1.2c0.7,0,1.2,0.5,1.2,1.2v4.7   c0,0.7-0.5,1.2-1.2,1.2c-0.7,0-1.2-0.5-1.2-1.2V18.9z"/><path fill-rule="evenodd" clip-rule="evenodd" d="M75.8,17.4c1,0,2,0.4,2.7,1.1l0,0l0,0l0,0c0.7,0.7,1.1,1.6,1.1,2.7   c0,1-0.4,2-1.1,2.7l0,0l0,0l0,0c-0.7,0.7-1.6,1.1-2.7,1.1c-1,0-2-0.4-2.7-1.1l0,0l0,0l0,0c-0.7-0.7-1.1-1.6-1.1-2.7   c0-1,0.4-2,1.1-2.7l0,0l0,0l0,0C73.8,17.9,74.8,17.4,75.8,17.4L75.8,17.4z M77.2,19.8c-0.4-0.4-0.9-0.6-1.4-0.6   c-0.6,0-1,0.2-1.4,0.6l0,0c-0.4,0.4-0.6,0.9-0.6,1.4c0,0.6,0.2,1,0.6,1.4l0,0c0.4,0.4,0.9,0.6,1.4,0.6c0.6,0,1-0.2,1.4-0.6l0,0   c0.4-0.4,0.6-0.9,0.6-1.4C77.8,20.7,77.6,20.2,77.2,19.8L77.2,19.8z"/><path fill-rule="evenodd" clip-rule="evenodd" d="M53.3,34.9c3,0,5.7,1.2,7.7,3.2c2,2,3.2,4.7,3.2,7.7c0,3-1.2,5.7-3.2,7.7   c-2,2-4.7,3.2-7.7,3.2c-3,0-5.7-1.2-7.7-3.2c-2-2-3.2-4.7-3.2-7.7c0-3,1.2-5.7,3.2-7.7C47.6,36.2,50.3,34.9,53.3,34.9L53.3,34.9z    M60.2,39c-1.7-1.7-4.2-2.8-6.8-2.8c-2.7,0-5.1,1.1-6.8,2.8c-1.7,1.7-2.8,4.2-2.8,6.8s1.1,5.1,2.8,6.8c1.7,1.7,4.2,2.8,6.8,2.8   c2.7,0,5.1-1.1,6.8-2.8c1.7-1.7,2.8-4.2,2.8-6.8S61.9,40.7,60.2,39z"/><path fill-rule="evenodd" clip-rule="evenodd" d="M53.3,39.9c1.6,0,3.1,0.7,4.2,1.7l0,0c1.1,1.1,1.7,2.5,1.7,4.1   c0,1.6-0.7,3.1-1.7,4.2l0,0l0,0l0,0c-1.1,1.1-2.6,1.7-4.2,1.7c-1.6,0-3.1-0.7-4.2-1.7l0,0c-1.1-1.1-1.7-2.6-1.7-4.2   c0-1.6,0.7-3.1,1.7-4.2C50.2,40.5,51.7,39.9,53.3,39.9L53.3,39.9z M56.7,42.5c-0.9-0.9-2-1.4-3.3-1.4c-1.3,0-2.5,0.5-3.3,1.4   c-0.9,0.9-1.4,2-1.4,3.3c0,1.3,0.5,2.5,1.4,3.3l0,0l0,0c0.8,0.9,2,1.4,3.3,1.4c1.3,0,2.5-0.5,3.3-1.4l0,0c0.8-0.8,1.4-2,1.4-3.3   C58,44.5,57.5,43.4,56.7,42.5L56.7,42.5z"/><path fill-rule="evenodd" clip-rule="evenodd" d="M39.3,40.9c-0.6-0.3-1.2-0.9-1.5-1.6c-0.3-0.5-0.5-1.2-0.7-1.8v16.6   c0.2-0.6,0.4-1.3,0.7-1.8c0.4-0.7,0.9-1.4,1.5-1.6V40.9L39.3,40.9z M38.8,38.7c0.3,0.6,0.7,1.1,1.1,1.1c0.3,0,0.6,0.3,0.6,0.6v10.6   h0c0,0.3-0.2,0.6-0.5,0.6c-0.4,0.1-0.8,0.5-1.2,1.1c-0.5,1-0.8,2.3-0.9,3.2c0,0.3-0.3,0.6-0.6,0.6h-0.9c-0.3,0-0.6-0.3-0.6-0.6   V35.6c0-0.3,0.3-0.6,0.6-0.6h0.9v0c0.3,0,0.6,0.2,0.6,0.6C38,36.4,38.3,37.7,38.8,38.7z"/><path fill-rule="evenodd" clip-rule="evenodd" d="M25.9,40.9c-0.6-0.3-1.2-0.9-1.5-1.6c-0.3-0.5-0.5-1.2-0.7-1.8v16.6   c0.2-0.6,0.4-1.3,0.7-1.8c0.4-0.7,0.9-1.4,1.5-1.6V40.9L25.9,40.9z M25.4,38.7c0.3,0.6,0.7,1.1,1.1,1.1c0.3,0,0.6,0.3,0.6,0.6v10.6   h0c0,0.3-0.2,0.6-0.5,0.6c-0.4,0.1-0.8,0.5-1.2,1.1c-0.5,1-0.8,2.3-0.9,3.2c0,0.3-0.3,0.6-0.6,0.6h-0.9c-0.3,0-0.6-0.3-0.6-0.6   V35.6c0-0.3,0.3-0.6,0.6-0.6h0.9v0c0.3,0,0.6,0.2,0.6,0.6C24.6,36.4,24.9,37.7,25.4,38.7z"/><path fill-rule="evenodd" clip-rule="evenodd" d="M32.6,40.9c-0.6-0.3-1.2-0.9-1.5-1.6c-0.3-0.5-0.5-1.2-0.7-1.8v16.6   c0.2-0.6,0.4-1.3,0.7-1.8c0.4-0.7,0.9-1.4,1.5-1.6V40.9L32.6,40.9z M32.1,38.7c0.3,0.6,0.7,1.1,1.1,1.1c0.3,0,0.6,0.3,0.6,0.6v10.6   h0c0,0.3-0.2,0.6-0.5,0.6c-0.4,0.1-0.8,0.5-1.2,1.1c-0.5,1-0.8,2.3-0.9,3.2c0,0.3-0.3,0.6-0.6,0.6h-0.9c-0.3,0-0.6-0.3-0.6-0.6   V35.6c0-0.3,0.3-0.6,0.6-0.6h0.9v0c0.3,0,0.6,0.2,0.6,0.6C31.3,36.4,31.6,37.7,32.1,38.7z"/><path fill-rule="evenodd" clip-rule="evenodd" d="M76.3,40.9c-0.6-0.3-1.2-0.9-1.5-1.6c-0.3-0.5-0.5-1.2-0.7-1.8v16.6   c0.2-0.6,0.4-1.3,0.7-1.8c0.4-0.7,0.9-1.4,1.5-1.6V40.9L76.3,40.9z M75.9,38.7c0.3,0.6,0.7,1.1,1.1,1.1c0.3,0,0.6,0.3,0.6,0.6v10.6   h0c0,0.3-0.2,0.6-0.5,0.6c-0.4,0.1-0.8,0.5-1.2,1.1c-0.5,1-0.8,2.3-0.9,3.2c0,0.3-0.3,0.6-0.6,0.6h-0.9c-0.3,0-0.6-0.3-0.6-0.6   V35.6c0-0.3,0.3-0.6,0.6-0.6h0.9v0c0.3,0,0.6,0.2,0.6,0.6C75,36.4,75.3,37.7,75.9,38.7z"/><path fill-rule="evenodd" clip-rule="evenodd" d="M69.7,40.9c-0.6-0.3-1.2-0.9-1.5-1.6c-0.3-0.5-0.5-1.2-0.7-1.8v16.6   c0.2-0.6,0.4-1.3,0.7-1.8c0.4-0.7,0.9-1.4,1.5-1.6V40.9L69.7,40.9z M69.2,38.7c0.3,0.6,0.7,1.1,1.1,1.1c0.3,0,0.6,0.3,0.6,0.6v10.6   h0c0,0.3-0.2,0.6-0.5,0.6c-0.4,0.1-0.8,0.5-1.2,1.1c-0.5,1-0.8,2.3-0.9,3.2c0,0.3-0.3,0.6-0.6,0.6h-0.9c-0.3,0-0.6-0.3-0.6-0.6   V35.6c0-0.3,0.3-0.6,0.6-0.6h0.9v0c0.3,0,0.6,0.2,0.6,0.6C68.4,36.4,68.7,37.7,69.2,38.7z"/><path fill-rule="evenodd" clip-rule="evenodd" d="M21.1,42.7c-0.3,0-0.6-0.3-0.6-0.6c0-0.3,0.3-0.6,0.6-0.6h57.9   c0.3,0,0.6,0.3,0.6,0.6c0,0.3-0.3,0.6-0.6,0.6H21.1z"/><path fill-rule="evenodd" clip-rule="evenodd" d="M21.1,50.1c-0.3,0-0.6-0.3-0.6-0.6c0-0.3,0.3-0.6,0.6-0.6h57.9   c0.3,0,0.6,0.3,0.6,0.6c0,0.3-0.3,0.6-0.6,0.6H21.1z"/><path fill-rule="evenodd" clip-rule="evenodd" d="M21.1,46.4c-0.3,0-0.6-0.3-0.6-0.6c0-0.3,0.3-0.6,0.6-0.6h57.9   c0.3,0,0.6,0.3,0.6,0.6c0,0.3-0.3,0.6-0.6,0.6H21.1z"/></g><text x="0" y="115" fill="#000000" font-size="5px" font-weight="bold" font-family="'Helvetica Neue', Helvetica, Arial-Unicode, Arial, Sans-serif">Created by Mourad Mokrane</text><text x="0" y="120" fill="#000000" font-size="5px" font-weight="bold" font-family="'Helvetica Neue', Helvetica, Arial-Unicode, Arial, Sans-serif">from the Noun Project</text></svg>