<svg xmlns="http://www.w3.org/2000/svg" xmlns:xlink="http://www.w3.org/1999/xlink" version="1.1" x="0px" y="0px" viewBox="0 0 90 112.5" enable-background="new 0 0 90 90" xml:space="preserve"><path d="M75.391,0.187H14.609L13.246,13.14h63.508L75.391,0.187z M28.771,7.814c0,0.628-0.507,1.136-1.134,1.136h-5.337  c-0.628,0-1.136-0.508-1.136-1.136V5.513c0-0.626,0.508-1.135,1.136-1.135h5.337c0.626,0,1.134,0.509,1.134,1.135V7.814z   M54.645,8.633c-1.088,0-1.969-0.882-1.969-1.967c0-1.088,0.881-1.97,1.969-1.97s1.969,0.882,1.969,1.97  C56.613,7.751,55.732,8.633,54.645,8.633z M60.754,8.633c-1.086,0-1.967-0.882-1.967-1.967c0-1.088,0.881-1.97,1.967-1.97  c1.09,0,1.973,0.882,1.973,1.97C62.727,7.751,61.844,8.633,60.754,8.633z M66.867,8.633c-1.088,0-1.969-0.882-1.969-1.967  c0-1.088,0.881-1.97,1.969-1.97s1.969,0.882,1.969,1.97C68.836,7.751,67.955,8.633,66.867,8.633z"/><path d="M45.001,35.565c-10.272,0-18.629,8.357-18.629,18.628c0,10.273,8.357,18.631,18.629,18.631s18.63-8.357,18.63-18.631  C63.631,43.922,55.273,35.565,45.001,35.565z M59.715,50.943v6.391c0,1.176-0.955,2.129-2.131,2.129s-2.129-0.953-2.129-2.129  v-6.391c0-1.172,0.953-2.129,2.129-2.129S59.715,49.771,59.715,50.943z"/><path d="M7.388,16.302l3.757,73.51h67.712l3.754-73.51H7.388z M45.001,79.643c-14.033,0-25.448-11.414-25.448-25.449  c0-14.032,11.415-25.446,25.448-25.446c14.03,0,25.446,11.415,25.446,25.446C70.447,68.229,59.031,79.643,45.001,79.643z"/><text x="0" y="105" fill="#000000" font-size="5px" font-weight="bold" font-family="'Helvetica Neue', Helvetica, Arial-Unicode, Arial, Sans-serif">Created by Yazmin Alanis</text><text x="0" y="110" fill="#000000" font-size="5px" font-weight="bold" font-family="'Helvetica Neue', Helvetica, Arial-Unicode, Arial, Sans-serif">from the Noun Project</text></svg>