<svg xmlns="http://www.w3.org/2000/svg" xmlns:xlink="http://www.w3.org/1999/xlink" version="1.1" x="0px" y="0px" viewBox="0 0 72 90" enable-background="new 0 0 72 72" xml:space="preserve"><g><path fill="#000000" d="M0.5,12v45.7c0,0.6,0.5,1.2,1.2,1.2h5.4c0.6,0,1.2,0.5,1.2,1.2l0,0c0,0.6,0.5,1.2,1.2,1.2h7.5   c0.6,0,1.2-0.5,1.2-1.2l0,0c0-0.6,0.5-1.2,1.2-1.2h33.6c0.6,0,1.2,0.5,1.2,1.2l0,0c0,0.6,0.5,1.2,1.2,1.2h7.5   c0.6,0,1.2-0.5,1.2-1.2l0,0c0-0.6,0.5-1.2,1.2-1.2h5.4c0.6,0,1.2-0.5,1.2-1.2V12c0-0.6-0.5-1.2-1.2-1.2H1.7C1,10.8,0.5,11.4,0.5,12   z M53.5,52.2H8.7c-0.6,0-1.2-0.5-1.2-1.2V18.7c0-0.6,0.5-1.2,1.2-1.2h44.9c0.6,0,1.2,0.5,1.2,1.2V51C54.7,51.7,54.1,52.2,53.5,52.2   z M62.9,43.4c-2.2,0-4-1.8-4-4s1.8-4,4-4c2.2,0,4,1.8,4,4S65.1,43.4,62.9,43.4z M62.9,27.1c-2.2,0-4-1.8-4-4s1.8-4,4-4   c2.2,0,4,1.8,4,4S65.1,27.1,62.9,27.1z"/><path fill="#000000" d="M38.4,43.3c3.1-2.4,5.1-6.1,5.3-10.3c0-0.3-0.2-0.5-0.5-0.5H16.7c-0.3,0-0.5,0.2-0.5,0.5   c0.1,4.2,2.2,7.9,5.3,10.3c0.3,0.3,0.2,0.8-0.3,0.8h-6.5c-0.4,0-0.6,0.5-0.3,0.8l2.1,2.5c0.1,0.1,0.2,0.2,0.3,0.2h26.2   c0.1,0,0.3-0.1,0.3-0.2l2.1-2.5c0.3-0.3,0-0.8-0.3-0.8h-6.5C38.2,44.1,38.1,43.6,38.4,43.3z"/></g><text x="0" y="87" fill="#000000" font-size="5px" font-weight="bold" font-family="'Helvetica Neue', Helvetica, Arial-Unicode, Arial, Sans-serif">Created by Creative Stall</text><text x="0" y="92" fill="#000000" font-size="5px" font-weight="bold" font-family="'Helvetica Neue', Helvetica, Arial-Unicode, Arial, Sans-serif">from the Noun Project</text></svg>