<svg xmlns="http://www.w3.org/2000/svg" xmlns:xlink="http://www.w3.org/1999/xlink" version="1.1" x="0px" y="0px" viewBox="0 0 48 60" enable-background="new 0 0 48 48" xml:space="preserve"><g><path d="M46.154,45.321c-8.262-0.614-7.104-4.055-8.549-6.63l-0.898,0.296L25.08,8.273l0,0c-0.387-2.288-0.958-4.572-2.478-5.824   c-1.255-1.035-3.363-2.204-5.514-2.383C11.614-0.392,4.806,1.333,3.372,12.103l-0.037,0.276c-0.307,2.18-0.355,4.966,2.024,7.177   c1.034,0.96,2.233,1.564,3.394,2.148c0.583,0.293,1.132,0.569,1.652,0.885c0.772,0.469,1.563,0.856,2.327,1.23   c1.236,0.607,2.404,1.18,3.369,2.026c1.219,1.071,1.46,2.652,1.506,4.399c-3.113-0.969-6.816-1.682-11.226-1.992   c0-0.008,0.005-0.014,0.005-0.021v-2.751c0-0.319-0.277-0.579-0.616-0.579h-3c-0.339,0-0.616,0.26-0.616,0.579v2.604   C1.45,28.078,0.735,28.076,0,28.088v9.91c1.098-0.854,2.504-1.365,4.039-1.365c3.504,0,6.346,2.674,6.346,5.973   c0,1.348-0.479,2.586-1.278,3.585h24.815c0,0-0.791-9.996-13.998-15.135c-0.006-2.368-0.149-4.952-2.25-6.798   c-1.195-1.049-2.559-1.717-3.877-2.363c-0.75-0.368-1.459-0.716-2.143-1.13c-0.599-0.364-1.217-0.675-1.815-0.975   c-1.062-0.535-2.065-1.039-2.859-1.778c-1.308-1.216-1.714-2.815-1.358-5.346l0.04-0.292C6.023,9.665,7.104,1.425,16.885,2.23   c1.316,0.109,2.964,0.836,4.196,1.853C22.194,5,22.625,7.564,22.809,8.659l0.018-0.002l12.238,30.873l-0.588,0.193l1.518,5.599   h-0.455V48H48v-2.679H46.154z"/><ellipse cx="4.039" cy="42.605" rx="3.654" ry="3.439"/></g><text x="0" y="63" fill="#000000" font-size="5px" font-weight="bold" font-family="'Helvetica Neue', Helvetica, Arial-Unicode, Arial, Sans-serif">Created by Creative Stall</text><text x="0" y="68" fill="#000000" font-size="5px" font-weight="bold" font-family="'Helvetica Neue', Helvetica, Arial-Unicode, Arial, Sans-serif">from the Noun Project</text></svg>