<svg xmlns="http://www.w3.org/2000/svg" xmlns:xlink="http://www.w3.org/1999/xlink" version="1.1" x="0px" y="0px" viewBox="0 0 72 90" enable-background="new 0 0 72 72" xml:space="preserve"><path fill="#000000" d="M66.9,26.7C61.3,15.5,53.3,12.8,46.7,16c-0.6,0.3-1.1,0.6-1.6,1c-0.6,0.4-1.2,0.6-1.9,0.6H28.8  c-0.7,0-1.3-0.2-1.9-0.6c-0.5-0.4-1-0.7-1.6-1c-6.6-3.3-14.6-0.5-20.2,10.7c-5.6,11.2-6.6,26.7,0,29.9c5,2.5,13.1-2.8,19.1-10.5  c0.7-0.8,1.7-1.3,2.7-1.3h18.3c1.1,0,2.1,0.5,2.7,1.3c6,7.7,14,13,19.1,10.5C73.5,53.4,72.5,37.9,66.9,26.7z M7.6,37.3  c-1.4,0-2.5-1.1-2.5-2.5c0-1.4,1.1-2.5,2.5-2.5s2.5,1.1,2.5,2.5C10.2,36.2,9,37.3,7.6,37.3z M14.1,43.7c-1.4,0-2.5-1.1-2.5-2.5  c0-1.4,1.1-2.5,2.5-2.5s2.5,1.1,2.5,2.5C16.6,42.6,15.5,43.7,14.1,43.7z M14.1,30.9c-1.4,0-2.5-1.1-2.5-2.5s1.1-2.5,2.5-2.5  s2.5,1.1,2.5,2.5S15.5,30.9,14.1,30.9z M20.5,37.3c-1.4,0-2.5-1.1-2.5-2.5c0-1.4,1.1-2.5,2.5-2.5c1.4,0,2.5,1.1,2.5,2.5  C23.1,36.2,21.9,37.3,20.5,37.3z M62.8,35.8h-4.5c-0.5,0-1,0.4-1,1v4.5c0,1.2-1.1,2.2-2.3,2c-1-0.2-1.7-1.1-1.7-2.1v-4.4  c0-0.5-0.4-1-1-1h-4.5c-1.2,0-2.2-1.1-2-2.3c0.2-1,1.1-1.7,2.1-1.7h4.4c0.5,0,1-0.4,1-1v-4.5c0-1.2,1.1-2.2,2.3-2  c1,0.2,1.7,1.1,1.7,2.1v4.4c0,0.5,0.4,1,1,1h4.4c1,0,1.9,0.7,2.1,1.7C65,34.7,64,35.8,62.8,35.8z"/><text x="0" y="87" fill="#000000" font-size="5px" font-weight="bold" font-family="'Helvetica Neue', Helvetica, Arial-Unicode, Arial, Sans-serif">Created by Creative Stall</text><text x="0" y="92" fill="#000000" font-size="5px" font-weight="bold" font-family="'Helvetica Neue', Helvetica, Arial-Unicode, Arial, Sans-serif">from the Noun Project</text></svg>