<?xml version="1.0" encoding="utf-8"?><!DOCTYPE svg PUBLIC "-//W3C//DTD SVG 1.1//EN" "http://www.w3.org/Graphics/SVG/1.1/DTD/svg11.dtd"><svg version="1.1" xmlns="http://www.w3.org/2000/svg" xmlns:xlink="http://www.w3.org/1999/xlink" x="0px" y="0px" viewBox="0 0 71.91 125" enable-background="new 0 0 71.91 100" xml:space="preserve"><g><g><rect y="85.394" fill="#010101" width="71.91" height="14.606"/><path fill="#010101" d="M35.853,17.688c13.346,0,35.837-4.167,36.057-4.205l0,0V0H29.213v17.391
			C31.461,17.578,33.743,17.688,35.853,17.688z M32.584,3.371h13.483v2.248H32.584V3.371z M32.584,8.989h13.483v2.247H32.584V8.989z
			"/><path fill="#010101" d="M71.91,16.197c-2.247,0.258-22.818,3.725-35.909,3.725C23.435,19.921,2.247,16.098,0,15.51v67.636h71.91
			V16.197z M36.201,73.172c-13.863,0-25.143-11.277-25.143-25.14c0-13.864,11.28-25.143,25.143-25.143
			c13.862,0,25.141,11.279,25.141,25.143C61.342,61.895,50.063,73.172,36.201,73.172z"/></g><g><path fill="#010101" d="M36.201,25.141c-12.622,0-22.891,10.27-22.891,22.891c0,12.621,10.269,22.888,22.891,22.888
			c12.62,0,22.889-10.268,22.889-22.888C59.09,35.41,48.821,25.141,36.201,25.141z M36.201,65.719
			c-9.768,0-17.686-7.919-17.686-17.687c0-9.77,7.918-17.689,17.686-17.689c6.775,0,12.657,3.809,15.629,9.399
			c0,0-2.305,3.401-2.231,7.452c0.065,4.049,2.748,8.069,2.748,8.069C49.585,61.428,43.396,65.719,36.201,65.719z"/></g><g><path fill="#010101" d="M0,0v13.411l0,0c0.179,0.036,13.483,2.645,26.966,3.791V0H0z M8.655,11.771
			c-2.061,0-3.726-1.669-3.726-3.726c0-2.057,1.665-3.725,3.726-3.725c2.055,0,3.72,1.667,3.72,3.725
			C12.375,10.1,10.71,11.771,8.655,11.771z"/></g></g><text x="0" y="115" fill="#000000" font-size="5px" font-weight="bold" font-family="'Helvetica Neue', Helvetica, Arial-Unicode, Arial, Sans-serif">Created by Stephanie Wauters</text><text x="0" y="120" fill="#000000" font-size="5px" font-weight="bold" font-family="'Helvetica Neue', Helvetica, Arial-Unicode, Arial, Sans-serif">from the Noun Project</text></svg>